<?xml version="1.0" standalone="no"?>
<!DOCTYPE svg PUBLIC "-//W3C//DTD SVG 20010904//EN"
 "http://www.w3.org/TR/2001/REC-SVG-20010904/DTD/svg10.dtd">
<svg version="1.0" xmlns="http://www.w3.org/2000/svg"
 width="148.000000pt" height="148.000000pt" viewBox="0 0 148.000000 148.000000"
 preserveAspectRatio="xMidYMid meet">
<metadata>
Created by potrace 1.11, written by Peter Selinger 2001-2013
</metadata>
<g transform="translate(0.000000,148.000000) scale(0.100000,-0.100000)"
fill="#000000" stroke="none">
<path d="M5 1128 c6 -332 12 -398 36 -398 4 0 9 10 11 23 2 12 8 -31 12 -96 8
-110 3 -160 -11 -109 -7 28 -43 30 -43 3 0 -11 6 -22 13 -24 9 -4 9 -6 0 -6
-9 -1 -13 -23 -12 -78 1 -55 3 -70 9 -53 8 24 8 24 9 3 1 -16 7 -23 20 -23 12
0 20 -9 23 -23 4 -20 1 -23 -19 -19 -18 3 -23 0 -23 -16 0 -11 -6 -22 -12 -24
-9 -3 -14 -47 -16 -148 l-4 -143 76 5 c42 3 79 8 83 11 3 4 -6 30 -20 58 -28
53 -34 93 -17 104 6 4 10 -5 10 -21 0 -36 37 -93 68 -105 36 -14 39 -3 9 29
-23 24 -27 37 -27 86 0 46 3 56 13 48 9 -8 12 2 13 46 2 92 15 139 39 139 8 0
12 -4 10 -8 -7 -10 97 -97 168 -143 42 -26 80 -40 140 -52 45 -8 111 -24 147
-35 36 -10 80 -19 97 -19 33 0 137 56 168 91 17 18 17 19 -1 19 -11 0 -31 -8
-44 -17 -14 -10 -25 -16 -25 -14 0 2 -19 -6 -42 -18 -51 -26 -131 -28 -176 -4
-29 15 -30 17 -12 25 20 8 7 7 -92 -8 -80 -12 -107 0 -211 99 -53 51 -98 95
-100 99 -2 5 25 8 60 8 35 0 88 7 118 15 30 9 60 17 65 18 6 1 15 5 20 9 6 4
33 -5 60 -19 39 -19 60 -24 95 -20 25 3 53 1 64 -5 18 -10 18 -9 2 13 -19 28
-21 65 -3 73 6 3 -17 3 -51 0 -60 -6 -66 -4 -110 26 -70 49 -111 91 -133 132
-26 51 -25 127 2 181 20 38 23 40 33 23 34 -59 83 -73 110 -34 27 38 19 65
-16 59 -4 0 -5 6 -2 14 8 20 34 19 34 0 0 -25 26 -17 39 12 12 26 3 42 -22 43
-5 0 -5 5 -2 10 4 7 12 7 25 0 15 -8 17 -6 13 10 -7 27 -95 42 -143 23 l-35
-13 25 21 c14 11 19 18 13 14 -17 -8 -17 17 0 35 6 7 -7 -1 -30 -19 -24 -18
-43 -38 -43 -44 0 -5 -2 -8 -5 -5 -3 3 1 21 9 40 18 43 91 111 151 140 44 21
58 38 33 38 -9 0 -8 4 2 10 8 5 22 9 30 9 10 0 8 -3 -5 -9 -13 -6 -15 -9 -5
-9 8 0 26 6 40 14 32 18 44 19 37 1 -4 -10 -1 -13 9 -9 8 3 13 12 10 19 -3 8
0 14 5 14 7 0 9 11 7 24 -3 16 0 27 10 31 20 7 10 15 -30 26 -26 7 -22 8 24 5
102 -8 228 -90 329 -216 25 -32 43 -44 62 -45 17 0 47 -18 86 -52 59 -53 79
-65 65 -40 -6 10 -4 10 7 0 7 -7 32 -13 56 -13 36 0 43 -3 43 -19 0 -11 8 -27
17 -36 14 -15 15 -23 6 -58 -9 -32 -8 -47 1 -65 11 -21 14 1 19 149 4 96 7
256 7 357 l0 182 -740 0 -741 0 6 -352z m851 289 c4 -4 -2 -7 -14 -7 -11 0
-24 5 -27 10 -7 11 30 8 41 -3z m149 -27 c40 -13 57 -32 49 -53 -4 -12 -12
-13 -42 -5 -20 5 -44 12 -52 15 -8 3 -21 5 -27 4 -7 -1 -10 4 -8 11 3 8 -7 19
-25 26 -16 8 -30 18 -30 24 0 14 72 0 82 -15 5 -7 8 -2 9 13 1 16 3 19 6 8 2
-9 19 -22 38 -28z m-395 -107 c0 -2 -6 -3 -12 -1 -7 1 -32 -8 -55 -20 -41 -21
-48 -21 -43 3 1 6 -2 6 -6 2 -4 -4 -9 -14 -10 -21 -4 -25 -37 -67 -65 -82
l-29 -14 11 27 c6 16 20 39 32 51 31 34 78 66 75 52 -2 -7 3 -15 11 -18 9 -3
12 0 9 10 -5 11 0 14 17 10 12 -2 26 1 29 7 6 9 36 5 36 -6z m100 -7 c-84 -24
-173 -85 -226 -157 -19 -27 -38 -49 -40 -49 -2 0 -2 11 0 24 3 18 1 23 -10 19
-8 -3 -14 -2 -14 2 0 17 43 76 63 87 21 11 21 11 4 -15 -27 -41 -20 -44 18 -7
19 18 38 31 41 27 10 -10 35 13 27 26 -3 6 -1 7 6 3 6 -4 23 1 39 12 34 24 80
40 112 40 16 0 9 -4 -20 -12z m-358 -228 c-8 -8 -9 -4 -5 13 4 13 8 18 11 10
2 -7 -1 -18 -6 -23z m266 -59 c-12 -7 -24 -7 -35 0 -15 9 -12 10 17 10 29 0
32 -1 18 -10z m2 -39 c11 -8 7 -9 -15 -4 -37 8 -45 14 -19 14 10 0 26 -5 34
-10z m-44 -119 c-4 -6 -12 -11 -17 -11 -6 0 -7 4 -4 10 3 6 -1 7 -9 4 -9 -3
-16 -1 -16 4 0 13 32 21 44 11 4 -4 5 -12 2 -18z m-286 -135 c0 -6 -7 -1 -16
10 -14 17 -14 16 0 -8 16 -26 15 -30 -8 -65 -13 -21 -38 -54 -55 -73 -31 -33
-32 -34 -38 -12 -3 12 -9 22 -14 22 -5 0 -9 18 -9 40 0 22 4 40 9 40 4 0 13
19 18 43 6 24 11 33 12 20 1 -25 16 -31 24 -10 4 9 7 9 15 -1 6 -9 12 -6 21
14 11 26 12 26 26 8 8 -11 15 -23 15 -28z m-43 -151 c-7 -14 -15 -25 -19 -25
-5 0 -8 -6 -8 -13 0 -7 -7 -22 -15 -33 -14 -18 -15 -17 -9 11 4 17 18 42 32
58 32 33 33 33 19 2z m-77 -20 c0 -12 -19 -12 -23 0 -4 9 -1 12 9 8 7 -3 14
-7 14 -8z m66 -50 c-9 -14 -14 -31 -10 -38 4 -7 4 -9 -1 -5 -4 4 -14 0 -22
-10 -12 -15 -13 -14 -2 8 17 34 40 70 46 70 3 0 -2 -11 -11 -25z m-85 -123
c-6 -2 -8 -9 -4 -15 4 -7 -1 -6 -10 2 -9 7 -17 9 -17 3 0 -5 6 -15 14 -21 15
-13 29 -1 40 37 4 12 12 22 17 22 5 0 3 -12 -5 -27 -17 -34 -86 -102 -86 -86
0 7 5 15 10 18 6 4 8 11 5 16 -4 5 -1 9 5 9 6 0 8 5 5 10 -4 6 -11 7 -17 4 -6
-4 -6 0 1 13 6 11 7 24 3 29 -4 5 1 2 10 -5 15 -11 19 -11 25 5 5 14 8 15 11
4 3 -8 0 -16 -7 -18z"/>
<path d="M197 589 c7 -7 15 -10 18 -7 3 3 -2 9 -12 12 -14 6 -15 5 -6 -5z"/>
<path d="M962 1198 c12 -37 28 -59 28 -40 0 14 -28 72 -35 72 -2 0 1 -15 7
-32z"/>
<path d="M824 1198 c-3 -4 -2 -8 3 -8 4 0 0 -5 -10 -11 -15 -9 -16 -13 -6 -26
12 -13 14 -13 20 4 7 16 8 16 8 -3 2 -42 -85 -138 -136 -150 -12 -4 -23 -10
-23 -15 0 -12 7 -11 31 1 14 8 19 7 19 -2 1 -7 15 3 32 22 29 33 30 33 13 5
-10 -16 -24 -34 -32 -38 -16 -9 -77 -127 -66 -126 34 2 128 47 131 62 2 10 -3
17 -12 17 -23 0 -25 12 -9 53 13 32 17 35 27 22 6 -9 27 -17 47 -19 48 -5 80
-16 74 -26 -3 -4 10 -10 28 -12 17 -3 41 -9 52 -13 19 -8 19 -8 3 12 -10 11
-18 24 -18 29 0 17 -64 38 -111 35 -37 -2 -52 3 -74 22 -19 16 -24 26 -17 31
7 4 12 2 12 -3 0 -6 8 -11 18 -11 13 0 14 2 4 9 -16 10 -12 43 6 49 7 2 10 -2
6 -12 -5 -12 -2 -15 10 -10 19 7 21 -7 4 -24 -9 -9 -8 -12 5 -12 9 0 16 3 16
8 -1 4 -1 16 0 26 1 19 2 19 21 1 16 -14 17 -20 8 -27 -8 -5 -1 -8 20 -8 38 0
75 -17 67 -30 -3 -5 4 -11 15 -15 11 -4 18 -11 15 -16 -3 -5 0 -6 8 -3 11 4
14 -2 11 -23 -3 -27 1 -30 44 -43 26 -8 66 -15 89 -15 51 -2 56 10 34 74 l-16
43 -75 -6 c-42 -4 -83 -4 -93 0 -33 12 -16 24 35 24 61 0 57 6 -27 50 -93 48
-103 55 -134 85 -27 28 -67 40 -77 23z m91 -58 c9 -17 21 -30 27 -30 6 0 9 -3
6 -6 -14 -13 -87 48 -88 74 0 22 38 -5 55 -38z"/>
<path d="M1020 1140 c-13 -8 -12 -10 3 -10 9 0 17 5 17 10 0 12 -1 12 -20 0z"/>
<path d="M1055 1130 c-4 -6 3 -10 14 -10 25 0 27 6 6 13 -8 4 -17 2 -20 -3z"/>
<path d="M595 1110 c3 -5 11 -10 16 -10 6 0 7 5 4 10 -3 6 -11 10 -16 10 -6 0
-7 -4 -4 -10z"/>
<path d="M884 927 c46 -29 59 -44 53 -61 -6 -16 -8 -16 -23 -1 -10 9 -24 13
-38 10 -17 -5 -18 -4 -6 4 13 9 12 11 -5 11 -11 0 -29 -6 -40 -14 -17 -11 -19
-23 -17 -70 3 -48 8 -59 27 -68 17 -8 28 -6 49 7 18 12 26 14 26 5 0 -9 4 -9
17 1 14 12 14 10 -2 -21 -9 -19 -35 -59 -57 -88 -31 -41 -35 -51 -18 -42 12 6
24 10 26 7 9 -8 -82 -98 -91 -90 -4 5 -5 3 -2 -4 4 -6 1 -14 -5 -16 -7 -3 8
-4 33 -3 25 2 54 8 65 14 17 11 17 11 -7 12 -26 0 -26 0 15 43 42 43 71 57 61
28 -3 -9 11 2 31 24 26 29 32 32 20 12 -9 -15 -14 -33 -10 -39 4 -6 3 -8 -4
-4 -6 3 -13 2 -17 -4 -3 -5 -1 -10 5 -10 6 0 4 -10 -6 -25 -9 -14 -12 -25 -7
-25 12 0 68 69 99 123 23 41 35 36 13 -5 -6 -11 -7 -18 -1 -14 21 13 44 82 47
139 2 32 9 64 15 71 10 8 11 2 6 -27 -4 -21 -9 -46 -12 -55 -3 -9 1 -7 8 6 8
12 18 19 23 15 5 -4 3 0 -4 10 -10 12 -10 17 -2 17 7 0 10 4 7 9 -7 11 13 9
31 -2 7 -4 21 -4 30 2 10 5 23 8 28 8 32 -4 143 -191 131 -220 -2 -7 -5 -4 -5
5 -1 11 -6 15 -15 12 -22 -8 -7 -47 15 -41 11 3 17 1 13 -4 -3 -5 0 -9 6 -9 7
0 10 -6 7 -14 -3 -8 -1 -16 5 -18 13 -5 -7 -84 -24 -94 -6 -4 -8 -3 -5 3 3 5
0 10 -7 10 -13 0 -17 -28 -5 -37 4 -3 0 -34 -7 -70 -30 -137 -34 -163 -28
-186 5 -18 2 -24 -10 -24 -11 0 -16 9 -16 30 0 19 -5 29 -12 28 -8 -2 -12 6
-11 17 1 18 -1 17 -15 -4 -38 -56 -48 -64 -91 -66 l-42 -2 3 33 c4 48 -13 44
-42 -12 -28 -51 -50 -67 -50 -37 -1 14 -7 10 -31 -17 -33 -39 -41 -35 -59 33
-13 44 -17 46 -30 12 -7 -19 -6 -35 4 -59 8 -18 12 -45 9 -60 l-5 -26 276 0
276 0 0 115 c0 63 -3 115 -6 115 -3 0 -14 -5 -25 -10 -39 -21 -83 26 -81 86 2
39 11 94 18 106 9 14 46 9 65 -8 17 -16 17 -14 0 32 -11 27 -29 83 -41 124
-12 41 -40 107 -63 145 -23 39 -40 74 -39 78 1 5 -2 6 -8 2 -5 -3 -10 -1 -10
4 0 6 -11 21 -25 33 -19 16 -22 24 -14 35 14 16 18 15 -75 3 l-75 -11 -75 36
c-42 21 -80 34 -87 29 -7 -4 -10 -3 -5 4 3 6 1 14 -5 18 -8 4 -9 3 -5 -4 8
-13 -6 -17 -18 -5 -3 4 -14 8 -24 9 -15 2 -15 1 2 -9z m96 -46 c0 -6 -4 -13
-10 -16 -5 -3 -10 1 -10 9 0 9 5 16 10 16 6 0 10 -4 10 -9z m62 -33 c7 -7 19
-13 26 -14 6 -1 17 -2 23 -2 8 -2 9 -19 4 -54 -4 -29 -8 -61 -8 -71 -1 -18 -2
-18 -15 0 -14 17 -14 17 -8 0 5 -17 -21 -84 -29 -75 -3 2 -1 20 4 39 5 19 12
50 15 69 l6 35 -19 -31 c-32 -52 -43 -49 -21 5 23 59 19 65 -11 19 -17 -26
-20 -28 -16 -10 5 20 3 21 -9 11 -13 -11 -14 -8 -8 17 18 74 35 90 66 62z
m-132 -17 c0 -5 -7 -11 -14 -14 -10 -4 -13 -1 -9 9 6 15 23 19 23 5z m50 -11
c0 -5 -5 -10 -11 -10 -5 0 -7 5 -4 10 3 6 8 10 11 10 2 0 4 -4 4 -10z m-89
-55 c0 -13 -41 -19 -41 -7 0 11 20 22 33 18 5 -1 8 -6 8 -11z"/>
<path d="M1375 900 c10 -11 20 -20 23 -20 3 0 -3 9 -13 20 -10 11 -20 20 -23
20 -3 0 3 -9 13 -20z"/>
<path d="M1416 882 c-2 -4 -1 -14 4 -22 7 -11 9 -9 7 8 -1 24 -3 26 -11 14z"/>
<path d="M642 648 c-22 -22 -14 -57 13 -64 36 -9 55 2 55 31 0 18 -7 28 -26
35 -31 12 -28 12 -42 -2z m38 -48 c0 -5 -6 -10 -14 -10 -8 0 -18 5 -21 10 -3
6 3 10 14 10 12 0 21 -4 21 -10z"/>
<path d="M1319 433 c-1 -4 -1 -11 -1 -15 3 -21 -81 -47 -93 -29 -4 7 -15 6
-34 -4 -22 -11 -37 -12 -62 -5 -43 13 -49 12 -26 -1 11 -7 15 -15 10 -22 -17
-23 -32 -67 -24 -67 5 0 33 20 62 45 59 51 83 54 85 12 1 -39 9 -42 24 -8 8
19 25 35 50 45 26 10 38 21 36 33 -3 17 -25 31 -27 16z"/>
<path d="M787 399 c7 -7 15 -10 18 -7 3 3 -2 9 -12 12 -14 6 -15 5 -6 -5z"/>
<path d="M950 380 c-11 -11 -20 -25 -20 -32 0 -6 1 -9 3 -7 1 2 13 16 26 32
28 31 21 37 -9 7z"/>
<path d="M1013 393 c-13 -2 -23 -11 -23 -20 0 -12 3 -13 13 -5 7 6 24 16 38
21 25 10 12 12 -28 4z"/>
<path d="M510 361 c8 -4 29 -11 45 -15 19 -4 25 -3 15 3 -8 4 -28 11 -45 15
-19 4 -25 3 -15 -3z"/>
<path d="M250 305 c0 -14 4 -33 9 -43 54 -102 64 -162 36 -212 -24 -42 -19
-50 30 -50 38 0 46 4 58 27 24 46 31 77 17 68 -9 -6 -11 3 -8 34 3 34 1 41
-14 41 -15 0 -18 9 -18 50 0 46 -13 67 -23 38 -8 -24 -39 13 -32 39 3 13 2 23
-2 24 -5 0 -18 2 -30 5 -19 3 -23 -1 -23 -21z"/>
<path d="M894 299 c-20 -22 -23 -28 -8 -19 18 11 50 50 41 50 -2 0 -16 -14
-33 -31z"/>
<path d="M1299 303 c-12 -33 -3 -81 12 -66 16 16 24 93 10 93 -6 0 -16 -12
-22 -27z"/>
<path d="M795 250 c-13 -6 -15 -9 -5 -9 8 0 22 4 30 9 18 12 2 12 -25 0z"/>
<path d="M723 233 c9 -2 25 -2 35 0 9 3 1 5 -18 5 -19 0 -27 -2 -17 -5z"/>
<path d="M224 143 c2 -15 5 -31 5 -35 2 -15 51 -8 51 7 0 8 -4 15 -10 15 -5 0
-19 9 -30 20 l-21 21 5 -28z"/>
<path d="M569 64 c63 -29 181 -31 181 -3 0 6 -26 10 -67 8 -38 -1 -86 1 -108
5 l-40 6 34 -16z"/>
</g>
</svg>
